<svg width="24" height="18" viewBox="0 0 24 18" fill="none" xmlns="http://www.w3.org/2000/svg">
<path d="M11.2667 4.66967L3.85818 10.7715V17.3571C3.85818 17.5276 3.92591 17.6911 4.04648 17.8117C4.16706 17.9323 4.33059 18 4.5011 18L9.00402 17.9883C9.17397 17.9875 9.33668 17.9194 9.45656 17.7989C9.57644 17.6784 9.64373 17.5154 9.64373 17.3454V13.4995C9.64373 13.329 9.71147 13.1655 9.83204 13.0449C9.95261 12.9243 10.1161 12.8566 10.2867 12.8566H12.8584C13.0289 12.8566 13.1924 12.9243 13.313 13.0449C13.4336 13.1655 13.5013 13.329 13.5013 13.4995V17.3426C13.501 17.4272 13.5175 17.511 13.5497 17.5893C13.5819 17.6675 13.6292 17.7386 13.6889 17.7985C13.7486 17.8584 13.8196 17.906 13.8977 17.9384C13.9759 17.9708 14.0596 17.9875 14.1442 17.9875L18.6455 18C18.8161 18 18.9796 17.9323 19.1002 17.8117C19.2207 17.6911 19.2885 17.5276 19.2885 17.3571V10.7671L11.8815 4.66967C11.7944 4.59948 11.686 4.56121 11.5741 4.56121C11.4623 4.56121 11.3538 4.59948 11.2667 4.66967ZM22.9692 8.81697L19.6099 6.04795V0.482197C19.6099 0.35431 19.5591 0.231662 19.4687 0.141232C19.3783 0.0508028 19.2556 0 19.1277 0H16.8775C16.7496 0 16.6269 0.0508028 16.5365 0.141232C16.4461 0.231662 16.3953 0.35431 16.3953 0.482197V3.39989L12.7977 0.440004C12.4525 0.155902 12.0192 0.000567925 11.5721 0.000567925C11.125 0.000567925 10.6918 0.155902 10.3465 0.440004L0.174997 8.81697C0.126169 8.85732 0.0857723 8.90691 0.056114 8.96288C0.0264557 9.01886 0.00811728 9.08013 0.00214664 9.14319C-0.003824 9.20626 0.00269012 9.26988 0.0213168 9.33043C0.0399435 9.39097 0.0703177 9.44726 0.110704 9.49606L1.13537 10.7417C1.17565 10.7907 1.22519 10.8313 1.28116 10.8611C1.33712 10.8909 1.39842 10.9093 1.46153 10.9154C1.52465 10.9215 1.58835 10.9151 1.64898 10.8965C1.70961 10.878 1.76598 10.8476 1.81487 10.8072L11.2667 3.02217C11.3538 2.95198 11.4623 2.9137 11.5741 2.9137C11.686 2.9137 11.7944 2.95198 11.8815 3.02217L21.3338 10.8072C21.3826 10.8476 21.4389 10.878 21.4994 10.8966C21.56 10.9152 21.6236 10.9218 21.6867 10.9158C21.7497 10.9098 21.811 10.8915 21.867 10.8618C21.9229 10.8322 21.9725 10.7918 22.0129 10.7429L23.0375 9.49726C23.0779 9.44818 23.1081 9.39161 23.1265 9.3308C23.145 9.26998 23.1512 9.20613 23.1448 9.14291C23.1385 9.0797 23.1197 9.01836 23.0896 8.96242C23.0594 8.90648 23.0185 8.85705 22.9692 8.81697Z" fill="white"/>
</svg>
